<svg width="11" height="8" viewBox="0 0 11 8" fill="none" xmlns="http://www.w3.org/2000/svg">
<path d="M5.33437 8C5.10745 7.99886 4.88362 7.94721 4.67914 7.84881C4.47465 7.75041 4.29464 7.60773 4.15215 7.43111L0.409927 2.89778C0.191255 2.62486 0.0536478 2.296 0.0127866 1.94868C-0.0280746 1.60136 0.0294535 1.24955 0.178816 0.933334C0.299953 0.658512 0.497636 0.424367 0.748255 0.258865C0.998874 0.0933616 1.29183 0.00349605 1.59215 0H9.07659C9.37691 0.00349605 9.66987 0.0933616 9.92049 0.258865C10.1711 0.424367 10.3688 0.658512 10.4899 0.933334C10.6393 1.24955 10.6968 1.60136 10.656 1.94868C10.6151 2.296 10.4775 2.62486 10.2588 2.89778L6.51659 7.43111C6.37411 7.60773 6.19409 7.75041 5.9896 7.84881C5.78512 7.94721 5.5613 7.99886 5.33437 8Z" fill="#61688B"/>
</svg>
