<svg width="23" height="16" viewBox="0 0 23 16" fill="none" xmlns="http://www.w3.org/2000/svg">
<path fill-rule="evenodd" clip-rule="evenodd" d="M19.8097 6.25735C20.7597 5.2357 21.1932 4.35082 20.9488 3.82664C20.7042 3.30224 19.747 3.06555 18.3527 3.13687C19.048 4.04367 19.5534 5.10361 19.8097 6.25735ZM16.4342 1.34028C15.1651 0.493568 13.6402 0 12.0001 0C7.88088 0 4.48883 3.1132 4.04845 7.11505C1.64822 9.17359 0.452598 11.3374 1.23656 13.0186C2.02045 14.6996 4.44614 15.1747 7.56547 14.6594C8.83471 15.5063 10.3597 16 12.0001 16C16.1199 16 19.5125 12.8857 19.9519 8.88288C22.3505 6.82496 23.5451 4.66206 22.7614 2.98141C21.9776 1.30067 19.5527 0.825504 16.4342 1.34028ZM8.05162 12.5178C6.79423 11.418 6.00006 9.80175 6.00006 8C6.00006 4.68629 8.68635 2 12.0001 2C15.2733 2 17.9343 4.62106 17.9989 7.87884C16.7276 8.85915 15.1124 9.8583 13.2668 10.7189C11.422 11.5792 9.61925 12.1741 8.05162 12.5178ZM10.7416 13.8678C11.8361 13.512 12.9696 13.0643 14.1121 12.5315C15.2553 11.9984 16.3275 11.4175 17.3041 10.8073C16.2969 12.7065 14.2995 14 12.0001 14C11.5684 14 11.1474 13.9544 10.7416 13.8678ZM5.64729 12.863C4.2519 12.9347 3.29383 12.698 3.04918 12.1734C2.8046 11.6489 3.23878 10.7632 4.18999 9.74076C4.44615 10.8952 4.95174 11.9558 5.64729 12.863Z" fill="black"/>
</svg>
