<svg width="14" height="14" viewBox="0 0 14 14" fill="none" xmlns="http://www.w3.org/2000/svg">
<path fill-rule="evenodd" clip-rule="evenodd" d="M6.3335 0.333374C3.01979 0.333374 0.333496 3.01967 0.333496 6.33337C0.333496 9.64708 3.01979 12.3334 6.3335 12.3334C7.75017 12.3334 9.05217 11.8424 10.0786 11.0213L12.5287 13.4714L13.4716 12.5286L11.0214 10.0785C11.8425 9.05206 12.3335 7.75005 12.3335 6.33337C12.3335 3.01967 9.64721 0.333374 6.3335 0.333374ZM1.66683 6.33337C1.66683 3.75605 3.75617 1.66671 6.3335 1.66671C8.91083 1.66671 11.0002 3.75605 11.0002 6.33337C11.0002 8.9107 8.91083 11 6.3335 11C3.75617 11 1.66683 8.9107 1.66683 6.33337Z" fill="#FF2900"/>
</svg>
