<svg width="32" height="32" viewBox="0 0 32 32" fill="none" xmlns="http://www.w3.org/2000/svg">
<path d="M14.6319 1.3457C15.1956 0.218097 16.8044 0.218098 17.3681 1.34571L31.3359 29.2858C31.8445 30.3032 31.1047 31.5 29.9678 31.5H2.03224C0.895266 31.5 0.155509 30.3032 0.664119 29.2858L14.6319 1.3457Z" stroke="#000577"/>
<path d="M15 9C15 8.44772 15.4477 8 16 8C16.5523 8 17 8.44772 17 9V24C17 24.5523 16.5523 25 16 25C15.4477 25 15 24.5523 15 24V9Z" fill="#A8ABFF"/>
<path d="M15 28C15 27.4477 15.4477 27 16 27C16.5523 27 17 27.4477 17 28C17 28.5523 16.5523 29 16 29C15.4477 29 15 28.5523 15 28Z" fill="#A8ABFF"/>
</svg>
